<svg xmlns="http://www.w3.org/2000/svg" id="Capa_1" enable-background="new 0 0 512 512" height="512" viewBox="0 0 512 512" width="512"><g><g><path d="m256 331.25c-49.798 0-90.313-40.514-90.313-90.312v-150.625c0-49.799 40.515-90.313 90.313-90.313s90.313 40.514 90.313 90.313v150.625c0 49.798-40.515 90.312-90.313 90.312z" fill="#d9e9fa"/></g><path d="m346.313 240.938v-150.625c0-49.799-40.515-90.313-90.313-90.313v331.25c49.798 0 90.313-40.514 90.313-90.312z" fill="#bfd9f5"/><g><path d="m241 376.5h30v60.25h-30z" fill="#4a6a6f"/></g><g><path d="m256 391.5c-84.049 0-152.429-68.379-152.429-152.429 0-8.284 6.716-15 15-15s15 6.716 15 15c0 67.507 54.921 122.429 122.429 122.429s122.429-54.921 122.429-122.429c0-8.284 6.716-15 15-15s15 6.716 15 15c0 84.05-68.38 152.429-152.429 152.429z" fill="#384949"/></g><g fill="#384949"><path d="m211.87 90.375h-46.182v30h46.182c8.284 0 15-6.716 15-15s-6.716-15-15-15z"/><path d="m211.87 150.625h-46.182v30h46.182c8.284 0 15-6.716 15-15s-6.716-15-15-15z"/><path d="m211.87 210.875h-46.182v30h46.182c8.284 0 15-6.716 15-15s-6.716-15-15-15z"/></g><path d="m346.313 90.375h-46.183c-8.284 0-15 6.716-15 15s6.716 15 15 15h46.182v-30z" fill="#151f1f"/><path d="m346.313 150.625h-46.183c-8.284 0-15 6.716-15 15s6.716 15 15 15h46.182v-30z" fill="#151f1f"/><path d="m346.313 210.875h-46.183c-8.284 0-15 6.716-15 15s6.716 15 15 15h46.182v-30z" fill="#151f1f"/><path d="m256 376.5h15v60.25h-15z" fill="#384949"/><path d="m408.429 239.071c0-8.284-6.716-15-15-15s-15 6.716-15 15c0 67.507-54.921 122.429-122.429 122.429v30c84.049 0 152.429-68.379 152.429-152.429z" fill="#151f1f"/><g><path d="m346.375 512h-180.75c-8.284 0-15-6.716-15-15 0-41.493 33.757-75.25 75.25-75.25h60.25c41.493 0 75.25 33.757 75.25 75.25 0 8.284-6.716 15-15 15z" fill="#ff4c5b"/></g><path d="m286.125 421.75h-30.125v90.25h90.375c8.284 0 15-6.716 15-15 0-41.493-33.757-75.25-75.25-75.25z" fill="#d90048"/></g></svg>
